<svg width="62" height="62" viewBox="0 0 62 62" fill="none" xmlns="http://www.w3.org/2000/svg">
<path d="M22.26 31.9625C23.2675 30.955 23.2675 29.3275 22.26 28.32C21.2525 27.3125 19.625 27.3125 18.6175 28.32L11.3583 35.5792C9.18833 37.7492 8 40.6167 8 43.6908C8 46.765 9.18833 49.6583 11.3583 51.8025C13.5283 53.9725 16.3958 55.1608 19.47 55.1608C22.5442 55.1608 25.4375 53.9725 27.5817 51.8025L36.9075 42.4767C40.8858 38.4983 41.4025 32.2983 38.1733 27.7258C37.3467 26.5633 35.745 26.2792 34.5825 27.1058C33.42 27.9325 33.1358 29.5342 33.9625 30.6967C35.7192 33.1767 35.435 36.6642 33.265 38.8083L23.9392 48.1342C21.5625 50.5108 17.3775 50.5108 15.0008 48.1342C13.8125 46.9458 13.1667 45.37 13.1667 43.665C13.1667 41.96 13.8125 40.3842 15.0008 39.1958L22.26 31.9625Z" fill="url(#paint0_linear_2001_9)"/>
<path d="M53.4926 9.35833C51.3226 7.18833 48.4551 6 45.3809 6C42.3068 6 39.4134 7.18833 37.2693 9.35833L27.9176 18.6842C23.9393 22.6625 23.4226 28.8625 26.6776 33.435C27.1943 34.1583 27.9693 34.52 28.7959 34.52C29.3126 34.52 29.8293 34.365 30.2943 34.055C31.4568 33.2283 31.7409 31.6267 30.9143 30.4642C29.1576 27.9842 29.4418 24.4967 31.6118 22.3525L40.9376 13.0267C43.3143 10.65 47.4993 10.65 49.8759 13.0267C51.0643 14.215 51.7101 15.7908 51.7101 17.4958C51.7101 19.2008 51.0643 20.7767 49.8759 21.965L42.6168 29.2242C41.6093 30.2317 41.6093 31.8592 42.6168 32.8667C43.6243 33.8742 45.2518 33.8742 46.2593 32.8667L53.5184 25.6075C55.6884 23.4375 56.8768 20.57 56.8768 17.4958C56.8509 14.4217 55.6626 11.5283 53.4926 9.35833Z" fill="url(#paint1_linear_2001_9)"/>
<defs>
<linearGradient id="paint0_linear_2001_9" x1="24.1422" y1="26.6317" x2="24.1422" y2="55.1608" gradientUnits="userSpaceOnUse">
<stop stop-color="#DD5033"/>
<stop offset="0.230769" stop-color="#D1344A"/>
<stop offset="0.466346" stop-color="#BA1B62"/>
<stop offset="0.610577" stop-color="#9A0B7C"/>
<stop offset="0.831731" stop-color="#590B98"/>
<stop offset="1" stop-color="#0A0EBB"/>
</linearGradient>
<linearGradient id="paint1_linear_2001_9" x1="40.711" y1="6" x2="40.711" y2="34.52" gradientUnits="userSpaceOnUse">
<stop stop-color="#DD5033"/>
<stop offset="0.230769" stop-color="#D1344A"/>
<stop offset="0.466346" stop-color="#BA1B62"/>
<stop offset="0.610577" stop-color="#9A0B7C"/>
<stop offset="0.831731" stop-color="#590B98"/>
<stop offset="1" stop-color="#0A0EBB"/>
</linearGradient>
</defs>
</svg>
