<svg width="62" height="62" viewBox="0 0 62 62" fill="none" xmlns="http://www.w3.org/2000/svg">
<path d="M22.3716 31.8784C23.3791 30.8709 23.3791 29.2434 22.3716 28.2359C21.3641 27.2284 19.7366 27.2284 18.7291 28.2359L11.4699 35.4951C9.29991 37.6651 8.11157 40.5326 8.11157 43.6067C8.11157 46.6809 9.29991 49.5742 11.4699 51.7184C13.6399 53.8884 16.5074 55.0767 19.5816 55.0767C22.6557 55.0767 25.5491 53.8884 27.6932 51.7184L37.0191 42.3926C40.9974 38.4142 41.5141 32.2142 38.2849 27.6417C37.4582 26.4792 35.8566 26.1951 34.6941 27.0217C33.5316 27.8484 33.2474 29.4501 34.0741 30.6126C35.8307 33.0926 35.5466 36.5801 33.3766 38.7242L24.0507 48.0501C21.6741 50.4267 17.4891 50.4267 15.1124 48.0501C13.9241 46.8617 13.2782 45.2859 13.2782 43.5809C13.2782 41.8759 13.9241 40.3001 15.1124 39.1117L22.3716 31.8784Z" fill="url(#paint0_linear_44_121)"/>
<path d="M53.6042 9.27423C51.4342 7.10423 48.5667 5.91589 45.4925 5.91589C42.4183 5.91589 39.525 7.10423 37.3808 9.27423L28.0292 18.6001C24.0508 22.5784 23.5342 28.7784 26.7892 33.3509C27.3058 34.0742 28.0808 34.4359 28.9075 34.4359C29.4242 34.4359 29.9408 34.2809 30.4058 33.9709C31.5683 33.1442 31.8525 31.5426 31.0258 30.3801C29.2692 27.9001 29.5533 24.4126 31.7233 22.2684L41.0492 12.9426C43.4258 10.5659 47.6108 10.5659 49.9875 12.9426C51.1758 14.1309 51.8217 15.7067 51.8217 17.4117C51.8217 19.1167 51.1758 20.6926 49.9875 21.8809L42.7283 29.1401C41.7208 30.1476 41.7208 31.7751 42.7283 32.7826C43.7358 33.7901 45.3633 33.7901 46.3708 32.7826L53.63 25.5234C55.8 23.3534 56.9883 20.4859 56.9883 17.4117C56.9625 14.3376 55.7742 11.4442 53.6042 9.27423Z" fill="url(#paint1_linear_44_121)"/>
<defs>
<linearGradient id="paint0_linear_44_121" x1="24.2538" y1="26.5476" x2="24.2538" y2="55.0767" gradientUnits="userSpaceOnUse">
<stop stop-color="white"/>
<stop offset="0.230769" stop-color="white"/>
<stop offset="0.466346" stop-color="white"/>
<stop offset="0.610577" stop-color="white"/>
<stop offset="0.831731" stop-color="white"/>
<stop offset="1" stop-color="white"/>
</linearGradient>
<linearGradient id="paint1_linear_44_121" x1="40.8225" y1="5.91589" x2="40.8225" y2="34.4359" gradientUnits="userSpaceOnUse">
<stop stop-color="white"/>
<stop offset="0.230769" stop-color="white"/>
<stop offset="0.466346" stop-color="white"/>
<stop offset="0.610577" stop-color="white"/>
<stop offset="0.831731" stop-color="white"/>
<stop offset="1" stop-color="white"/>
</linearGradient>
</defs>
</svg>
