<svg width="62" height="62" viewBox="0 0 62 62" fill="none" xmlns="http://www.w3.org/2000/svg">
<g clip-path="url(#clip0_44_109)">
<path d="M58.504 23.1603L58.3643 23.4995C53.5812 35.1153 42.3735 42.6209 29.8113 42.6209H23.25V38.3831C23.25 36.8106 21.3873 35.981 20.2185 37.0331L8.10913 47.9315C7.30737 48.6531 7.30737 49.9102 8.10913 50.6318L20.2185 61.5302C21.3874 62.5823 23.25 61.7526 23.25 60.1801V55.9414H29.9107C38.4821 55.9414 46.5404 52.6035 52.6013 46.5427C58.6621 40.4816 62 32.4234 62 23.8519C62 21.8623 59.2616 21.3205 58.504 23.1603ZM29.9107 52.3084H21.4336C20.4304 52.3084 19.6172 53.1217 19.6172 54.1248V56.1014L12.0395 49.2816L19.6172 42.4617V44.4373C19.6172 45.4405 20.4304 46.2537 21.4336 46.2537H29.8114C36.6732 46.2537 43.3138 44.2356 49.0151 40.4175C51.9629 38.4434 54.5612 36.0541 56.7446 33.3295C52.8318 44.3755 42.2803 52.3084 29.9107 52.3084Z" fill="white"/>
<path d="M32.1885 19.3791H38.75V23.6169C38.75 25.1896 40.6127 26.0191 41.7815 24.967L53.8908 14.0686C54.6926 13.347 54.6926 12.0899 53.8908 11.3683L41.7815 0.469869C40.6127 -0.582194 38.75 0.24742 38.75 1.81994V6.05871H32.0892C23.5179 6.05871 15.4596 9.39654 9.39869 15.4574C3.33783 21.5185 0 29.5768 0 38.1482C0 40.1379 2.73841 40.6797 3.49598 38.8398L3.63572 38.5006C8.41868 26.8848 19.6264 19.3791 32.1885 19.3791ZM5.25535 28.6705C9.16813 17.6246 19.7196 9.69164 32.0892 9.69164H40.5664C41.5695 9.69164 42.3828 8.87838 42.3828 7.87524V5.89862L49.9605 12.7185L42.3828 19.5384V17.5626C42.3828 16.5595 41.5695 15.7462 40.5664 15.7462H32.1885C25.3268 15.7462 18.6862 17.7644 12.9849 21.5824C10.0372 23.5566 7.43891 25.9459 5.25535 28.6705Z" fill="white"/>
</g>
<defs>
<clipPath id="clip0_44_109">
<rect width="62" height="62" fill="white"/>
</clipPath>
</defs>
</svg>
