<svg width="62" height="62" viewBox="0 0 62 62" fill="none" xmlns="http://www.w3.org/2000/svg">
<path fill-rule="evenodd" clip-rule="evenodd" d="M46.5 7.75C41.1497 7.75 36.8125 12.0872 36.8125 17.4375V25.1875C41.0926 25.1875 44.5625 28.6574 44.5625 32.9375V50.375C44.5625 54.6551 41.0926 58.125 36.8125 58.125H9.6875C5.40728 58.125 1.9375 54.6551 1.9375 50.375V32.9375C1.9375 28.6574 5.40728 25.1875 9.6875 25.1875H32.9375V17.4375C32.9375 9.94715 39.0096 3.875 46.5 3.875C53.9904 3.875 60.0625 9.94715 60.0625 17.4375V27.125C60.0625 28.195 59.195 29.0625 58.125 29.0625C57.055 29.0625 56.1875 28.195 56.1875 27.125V17.4375C56.1875 12.0872 51.8503 7.75 46.5 7.75ZM9.6875 29.0625C7.54741 29.0625 5.8125 30.7975 5.8125 32.9375V50.375C5.8125 52.515 7.54741 54.25 9.6875 54.25H36.8125C38.9525 54.25 40.6875 52.515 40.6875 50.375V32.9375C40.6875 30.7975 38.9525 29.0625 36.8125 29.0625H9.6875Z" fill="url(#paint0_linear_125_59)"/>
<defs>
<linearGradient id="paint0_linear_125_59" x1="31" y1="3.875" x2="31" y2="58.125" gradientUnits="userSpaceOnUse">
<stop stop-color="#DD5033"/>
<stop offset="0.230769" stop-color="#D1344A"/>
<stop offset="0.466346" stop-color="#BA1B62"/>
<stop offset="0.610577" stop-color="#9A0B7C"/>
<stop offset="0.831731" stop-color="#590B98"/>
<stop offset="1" stop-color="#0A0EBB"/>
</linearGradient>
</defs>
</svg>
