<svg width="30" height="23" viewBox="0 0 30 23" fill="none" xmlns="http://www.w3.org/2000/svg">
<path d="M25.4351 1.94252C28.8231 6.95493 30.4963 12.6086 29.8708 19.1173C29.8683 19.1449 29.8541 19.1702 29.8316 19.1868C27.2658 21.0823 24.7798 22.2328 22.3288 22.9959C22.3098 23.0015 22.2893 23.0012 22.2706 22.9948C22.2516 22.9884 22.2353 22.9762 22.2236 22.9598C21.6573 22.1671 21.1428 21.3314 20.6921 20.4538C20.6661 20.402 20.6898 20.3399 20.7431 20.3194C21.5601 20.0097 22.3371 19.6384 23.0846 19.1988C23.1433 19.1641 23.1471 19.0792 23.0928 19.0383C22.9341 18.92 22.7771 18.7956 22.6266 18.6708C22.5986 18.6478 22.5606 18.6435 22.5288 18.6588C17.6766 20.9133 12.3613 20.9133 7.45189 18.6588C7.42001 18.6445 7.38214 18.6494 7.35477 18.6721C7.20476 18.7966 7.04726 18.92 6.89014 19.0383C6.83576 19.0792 6.84026 19.1641 6.89951 19.1988C7.64689 19.6299 8.42389 20.0097 9.23989 20.321C9.29277 20.3414 9.3179 20.402 9.29165 20.4538C8.85064 21.3324 8.33614 22.1684 7.75939 22.9611C7.73427 22.993 7.69301 23.0079 7.65401 22.9959C5.21463 22.2328 2.72875 21.0823 0.163015 19.1868C0.14164 19.1702 0.126266 19.1436 0.124016 19.1163C-0.398736 13.4861 0.666617 7.78574 4.55575 1.94137C4.56513 1.92591 4.57938 1.91385 4.59588 1.90667C6.50951 1.02299 8.55964 0.372879 10.7023 0.00158324C10.7413 -0.00444786 10.7803 0.0136724 10.8005 0.0483767C11.0653 0.520029 11.368 1.12488 11.5728 1.61914C13.8313 1.27202 16.1253 1.27202 18.4311 1.61914C18.6358 1.13543 18.9281 0.520029 19.1916 0.0483767C19.2011 0.0311523 19.2156 0.0173525 19.2333 0.00897028C19.2508 0.000562521 19.2708 -0.00202008 19.2898 0.00158324C21.4338 0.374003 23.4838 1.02411 25.3961 1.90667C25.4128 1.91385 25.4268 1.92591 25.4351 1.94252ZM12.721 12.6472C12.7445 10.9827 11.5385 9.60554 10.0248 9.60554C8.52327 9.60554 7.32889 10.9707 7.32889 12.6472C7.32889 14.3231 8.54689 15.6883 10.0248 15.6883C11.5265 15.6883 12.721 14.3231 12.721 12.6472ZM22.6893 12.6472C22.7128 10.9827 21.5068 9.60554 19.9933 9.60554C18.4916 9.60554 17.297 10.9707 17.297 12.6472C17.297 14.3231 18.5151 15.6883 19.9933 15.6883C21.5068 15.6883 22.6893 14.3231 22.6893 12.6472Z" fill="white"/>
</svg>
