<svg width="31" height="30" viewBox="0 0 31 30" fill="none" xmlns="http://www.w3.org/2000/svg">
<path fill-rule="evenodd" clip-rule="evenodd" d="M15.3009 0C6.84713 0 0 6.84713 0 15.3009C0 22.0715 4.37987 27.7902 10.462 29.8175C11.227 29.9514 11.5139 29.4924 11.5139 29.0907C11.5139 28.7274 11.4948 27.5224 11.4948 26.241C7.65043 26.9486 6.65587 25.3038 6.34985 24.4431C6.17772 24.0032 5.4318 22.6453 4.78152 22.2819C4.24599 21.995 3.48094 21.2873 4.76239 21.2682C5.96733 21.2491 6.82801 22.3775 7.1149 22.8365C8.49197 25.1508 10.6915 24.5005 11.5713 24.0988C11.7052 23.1043 12.1068 22.4349 12.5467 22.0524C9.14226 21.6698 5.58481 20.3501 5.58481 14.4976C5.58481 12.8336 6.17772 11.4565 7.15315 10.3855C7.00014 10.0029 6.46461 8.4346 7.30616 6.33073C7.30616 6.33073 8.58761 5.92908 11.5139 7.89907C12.738 7.5548 14.0385 7.38266 15.3391 7.38266C16.6397 7.38266 17.9403 7.5548 19.1643 7.89907C22.0906 5.90996 23.3721 6.33073 23.3721 6.33073C24.2136 8.4346 23.6781 10.0029 23.5251 10.3855C24.5005 11.4565 25.0934 12.8145 25.0934 14.4976C25.0934 20.3693 21.5168 21.6698 18.1124 22.0524C18.667 22.5305 19.1452 23.4486 19.1452 24.883C19.1452 26.9295 19.1261 28.5743 19.1261 29.0907C19.1261 29.4924 19.413 29.9705 20.178 29.8175C26.2218 27.7902 30.6017 22.0524 30.6017 15.3009C30.6017 6.84713 23.7546 0 15.3009 0Z" fill="white"/>
</svg>
