<svg width="62" height="62" viewBox="0 0 62 62" fill="none" xmlns="http://www.w3.org/2000/svg">
<g clip-path="url(#clip0_125_62)">
<path d="M58.1802 23.4767H53.2493C52.9151 22.4876 52.5159 21.5217 52.0548 20.5859L55.5423 17.0984C57.0332 15.6066 57.0332 13.1886 55.5423 11.6967L50.3014 6.45963C48.7892 5.01716 46.4118 5.01716 44.8996 6.45963L41.4121 9.94712C40.4773 9.48406 39.5124 9.08494 38.5243 8.75266V3.81687C38.5214 1.70984 36.8135 0.0019375 34.7064 0H27.2936C25.1856 0.00096875 23.4767 1.70887 23.4738 3.81687V8.75072C22.4857 9.083 21.5208 9.48213 20.5859 9.94519L17.1033 6.45769C15.5911 5.01522 13.2138 5.01522 11.7015 6.45769L6.45769 11.6986C4.96872 13.1915 4.96872 15.6075 6.45769 17.1004L9.94519 20.5879C9.48406 21.5237 9.08494 22.4895 8.75072 23.4786H3.81978C1.71275 23.4796 0.003875 25.1865 0 27.2936V34.7064C0.00290625 36.8144 1.71178 38.5223 3.81978 38.5233H8.75072C9.08494 39.5124 9.48406 40.4782 9.94519 41.4141L6.45769 44.9016C4.96678 46.3934 4.96678 48.8114 6.45769 50.3033L11.6967 55.5423C13.2089 56.9848 15.5862 56.9848 17.0984 55.5423L20.5859 52.0548C21.5208 52.5179 22.4857 52.917 23.4738 53.2493V58.1831C23.4767 60.2911 25.1856 61.999 27.2936 62H34.7064C36.8144 61.999 38.5233 60.2911 38.5262 58.1831V53.2493C39.5143 52.917 40.4792 52.5179 41.4141 52.0548L44.8967 55.5423C46.4089 56.9848 48.7863 56.9848 50.2985 55.5423L55.5423 50.3033C57.0313 48.8105 57.0313 46.3944 55.5423 44.9016L52.0548 41.4141C52.5159 40.4782 52.9151 39.5124 53.2493 38.5233H58.1802C60.2882 38.5223 61.9971 36.8144 62 34.7064V27.2936C61.9971 25.1856 60.2882 23.4777 58.1802 23.4767ZM59.304 34.7064C59.302 35.3255 58.7992 35.8273 58.1802 35.8283H52.2602C51.6605 35.8263 51.1326 36.2216 50.965 36.797C50.5416 38.2627 49.9565 39.6771 49.2212 41.014C48.9287 41.541 49.0207 42.1987 49.4479 42.625L53.6339 46.81C54.0727 47.2488 54.0727 47.9609 53.6339 48.4007L48.39 53.6387C47.9502 54.0708 47.245 54.0708 46.8052 53.6387L42.625 49.4479C42.2017 49.0207 41.5458 48.9287 41.0217 49.2222C39.6868 49.9575 38.2743 50.5426 36.8096 50.9659C36.2332 51.1326 35.836 51.6605 35.835 52.2612V58.1831C35.8331 58.8022 35.3303 59.303 34.7113 59.304H27.2936C26.6745 59.303 26.1717 58.8022 26.1698 58.1831V52.2602C26.1688 51.6596 25.7717 51.1316 25.1952 50.965C23.7305 50.5416 22.3181 49.9565 20.9831 49.2212C20.7845 49.1088 20.5608 49.0507 20.3331 49.0527C19.9756 49.0536 19.6337 49.1951 19.3798 49.4469L15.1919 53.6329C14.7521 54.065 14.0469 54.065 13.6071 53.6329L8.36903 48.3958C7.93019 47.9589 7.92825 47.2488 8.36516 46.809L8.36903 46.8052L12.5521 42.625C12.9754 42.2007 13.0684 41.5487 12.7807 41.0237C12.0454 39.6868 11.4603 38.2724 11.037 36.8067C10.8694 36.2313 10.3414 35.836 9.74175 35.8379H3.81978C3.20075 35.837 2.69797 35.3352 2.69603 34.7161V27.2936C2.69797 26.6745 3.20075 26.1727 3.81978 26.1718H9.73981C10.3395 26.1737 10.8674 25.7784 11.035 25.203C11.4584 23.7373 12.0435 22.3229 12.7788 20.986C13.0665 20.461 12.9735 19.809 12.5502 19.3847L8.36419 15.1997C7.92534 14.7608 7.92534 14.0488 8.36419 13.609L13.608 8.37097C14.0478 7.93891 14.7531 7.93891 15.1929 8.37097L19.3779 12.5569C19.8013 12.9832 20.4561 13.0752 20.9812 12.7827C22.3161 12.0474 23.7286 11.4623 25.1933 11.0389C25.7697 10.8723 26.1669 10.3443 26.1679 9.74369V3.81687C26.1698 3.19784 26.6726 2.697 27.2916 2.69603H34.7045C35.3235 2.697 35.8263 3.19784 35.8283 3.81687V9.73981C35.8292 10.3404 36.2264 10.8684 36.8028 11.035C38.2676 11.4584 39.68 12.0435 41.0149 12.7788C41.541 13.0762 42.2017 12.9832 42.625 12.5521L46.8129 8.36613C47.2527 7.93406 47.958 7.93406 48.3978 8.36613L53.6358 13.6042C54.0747 14.0411 54.0766 14.7512 53.6397 15.191C53.6387 15.1919 53.6368 15.1939 53.6358 15.1948L49.4498 19.3798C49.0265 19.8042 48.9335 20.4561 49.2212 20.9812C49.9565 22.3181 50.5416 23.7324 50.965 25.1982C51.1326 25.7736 51.6605 26.1688 52.2602 26.1669H58.1802C58.7992 26.1679 59.302 26.6697 59.304 27.2887V34.7064ZM31 19.7703C24.7981 19.7741 19.7741 24.8058 19.778 31.0077C19.7819 37.2097 24.8136 42.2336 31.0155 42.2297C37.2145 42.2259 42.2375 37.199 42.2375 31C42.2297 24.7981 37.2019 19.7741 31 19.7703ZM31 39.5327C26.2861 39.5318 22.4663 35.7101 22.4672 30.9961C22.4682 26.2822 26.2899 22.4624 31.0039 22.4634C35.7178 22.4643 39.5376 26.2861 39.5366 31C39.5308 35.712 35.712 39.5308 31 39.5347V39.5327Z" fill="url(#paint0_linear_125_62)"/>
</g>
<defs>
<linearGradient id="paint0_linear_125_62" x1="31" y1="0" x2="31" y2="62" gradientUnits="userSpaceOnUse">
<stop stop-color="#DD5033"/>
<stop offset="0.230769" stop-color="#D1344A"/>
<stop offset="0.466346" stop-color="#BA1B62"/>
<stop offset="0.610577" stop-color="#9A0B7C"/>
<stop offset="0.831731" stop-color="#590B98"/>
<stop offset="1" stop-color="#0A0EBB"/>
</linearGradient>
<clipPath id="clip0_125_62">
<rect width="62" height="62" fill="white"/>
</clipPath>
</defs>
</svg>
