<svg width="42" height="31" viewBox="0 0 42 31" fill="none" xmlns="http://www.w3.org/2000/svg">
<path d="M18.847 25.1532C19.0081 25.1534 19.1676 25.1854 19.3163 25.2472C19.465 25.3091 19.6001 25.3996 19.7139 25.5137C19.8276 25.6278 19.9178 25.7631 19.9792 25.912C20.0406 26.0609 20.0721 26.2205 20.0719 26.3816C20.0717 26.5427 20.0397 26.7021 19.9779 26.8508C19.916 26.9996 19.8255 27.1347 19.7114 27.2484C19.5973 27.3622 19.462 27.4523 19.3131 27.5137C19.1642 27.5752 19.0046 27.6067 18.8435 27.6064C18.5182 27.606 18.2064 27.4763 17.9767 27.2459C17.747 27.0156 17.6182 26.7034 17.6187 26.3781C17.6191 26.0528 17.7488 25.741 17.9792 25.5112C18.2095 25.2815 18.5217 25.1528 18.847 25.1532ZM38.0821 17.5684C37.921 17.5683 37.7615 17.5365 37.6127 17.4747C37.464 17.413 37.3288 17.3225 37.215 17.2085C37.1012 17.0945 37.0109 16.9593 36.9494 16.8104C36.8878 16.6615 36.8562 16.502 36.8563 16.3409C36.8564 16.1798 36.8883 16.0204 36.95 15.8716C37.0118 15.7228 37.1022 15.5877 37.2162 15.4738C37.3302 15.36 37.4655 15.2698 37.6143 15.2082C37.7632 15.1467 37.9227 15.1151 38.0838 15.1152C38.4091 15.1154 38.721 15.2449 38.9509 15.4751C39.1808 15.7053 39.3098 16.0174 39.3096 16.3427C39.3093 16.668 39.1799 16.9799 38.9497 17.2098C38.7195 17.4396 38.4074 17.5686 38.0821 17.5684ZM38.0821 12.5503C37.0763 12.5512 36.112 12.9511 35.4009 13.6623C34.6897 14.3735 34.2897 15.3378 34.2888 16.3435C34.2888 16.7501 34.3569 17.1549 34.4895 17.5492L21.9598 24.2197C21.6124 23.7153 21.1475 23.3029 20.6052 23.018C20.063 22.7332 19.4596 22.5845 18.847 22.5848C17.4006 22.5848 16.0832 23.4136 15.4446 24.7065L4.18868 18.7706C2.9987 18.146 2.10883 16.1883 2.20305 14.405C2.25191 13.475 2.57296 12.7527 3.06326 12.4735C3.37384 12.299 3.74723 12.313 4.14505 12.5206L4.21834 12.5607C7.202 14.1311 16.9626 19.2731 17.3744 19.4633C18.0078 19.7582 18.3602 19.8768 19.442 19.3639L39.6193 8.87042C39.9159 8.75875 40.2614 8.47434 40.2614 8.04337C40.2614 7.44663 39.6437 7.21108 39.642 7.21108C38.4939 6.66146 36.7298 5.83615 35.0094 5.03004C31.3313 3.30789 27.1629 1.35716 25.3326 0.397502C23.7518 -0.429549 22.4798 0.268384 22.2529 0.407971L21.8132 0.626076C13.5741 4.70026 2.54679 10.1616 1.91865 10.5437C0.796718 11.2277 0.100529 12.5904 0.00979795 14.2811C-0.129789 16.963 1.23642 19.7599 3.19238 20.7841L15.0956 26.9225C15.2268 27.8242 15.6779 28.6486 16.3667 29.2451C17.0555 29.8416 17.9359 30.1704 18.847 30.1714C19.8422 30.1697 20.7969 29.7775 21.5059 29.0793C22.2149 28.381 22.6216 27.4324 22.6386 26.4374L35.7492 19.3307C36.4123 19.8507 37.2376 20.1351 38.0821 20.1351C39.0878 20.1341 40.0521 19.7342 40.7633 19.023C41.4745 18.3118 41.8744 17.3476 41.8753 16.3418C41.8744 15.336 41.4745 14.3717 40.7633 13.6606C40.0521 12.9494 39.0878 12.5495 38.0821 12.5485" fill="white"/>
</svg>
