<svg width="62" height="62" viewBox="0 0 62 62" fill="none" xmlns="http://www.w3.org/2000/svg">
<path d="M54.8894 9.0481H7.11063C5.22645 9.04809 3.4193 9.79592 2.08608 11.1273C0.752853 12.4587 0.002567 14.2649 0 16.149V45.8509C0.002567 47.7351 0.752853 49.5412 2.08608 50.8726C3.4193 52.204 5.22645 52.9518 7.11063 52.9518H19.1619C19.6794 53.7647 20.2765 54.5241 20.9444 55.2187C21.0436 55.3568 21.1647 55.4779 21.3028 55.5772C22.7964 57.0255 24.5953 58.1211 26.5675 58.7837C28.5396 59.4463 30.6351 59.659 32.7002 59.4064C34.7653 59.1537 36.7477 58.442 38.5019 57.3234C40.2561 56.2049 41.7378 54.7079 42.8381 52.9422H54.8894C56.7719 52.9422 58.5776 52.1957 59.9105 50.8664C61.2435 49.537 61.9949 47.7334 62 45.8509V16.149C61.9974 14.2649 61.2471 12.4587 59.9139 11.1273C58.5807 9.79592 56.7736 9.04809 54.8894 9.0481ZM20.8862 45.5312C20.8863 43.6968 21.3853 41.897 22.3298 40.3244C23.2743 38.7519 24.6287 37.4658 26.248 36.6039C27.8673 35.742 29.6905 35.3367 31.5225 35.4315C33.3544 35.5262 35.1261 36.1175 36.6478 37.1418L22.6106 51.179C21.4857 49.5104 20.8852 47.5436 20.8862 45.5312ZM31 55.645C28.9876 55.646 27.0208 55.0455 25.3522 53.9206L39.3894 39.8834C40.4138 41.4051 41.005 43.1768 41.0997 45.0088C41.1945 46.8407 40.7892 48.6639 39.9273 50.2832C39.0654 51.9025 37.7794 53.2569 36.2068 54.2014C34.6342 55.1459 32.8344 55.6449 31 55.645ZM58.125 45.8509C58.1224 46.7074 57.7804 47.5279 57.1739 48.1326C56.5674 48.7373 55.7458 49.0769 54.8894 49.0768H44.5625C45.1781 46.7565 45.1785 44.3158 44.5636 41.9953C43.9486 39.6748 42.7396 37.5546 41.0556 35.8437C40.9564 35.7056 40.8353 35.5846 40.6972 35.4853C38.514 33.3409 35.6863 31.9739 32.6497 31.5949C29.6132 31.2159 26.5362 31.8459 23.8929 33.3878C21.2496 34.9297 19.1867 37.298 18.0219 40.1278C16.8572 42.9576 16.6552 46.0919 17.4472 49.0478H7.11063C6.25916 49.0478 5.44198 48.7123 4.83628 48.1138C4.23059 47.5154 3.8852 46.7023 3.875 45.8509V29.7115H58.125V45.8509ZM58.125 25.8365H3.875V20.6731H58.125V25.8365ZM58.125 16.7981H3.875V16.149C3.87756 15.2926 4.21959 14.4721 4.82611 13.8674C5.43263 13.2627 6.25416 12.9231 7.11063 12.9231H54.8894C55.7458 12.9231 56.5674 13.2627 57.1739 13.8674C57.7804 14.4721 58.1224 15.2926 58.125 16.149V16.7981Z" fill="url(#paint0_linear_125_58)"/>
<defs>
<linearGradient id="paint0_linear_125_58" x1="31" y1="9.0481" x2="31" y2="59.5096" gradientUnits="userSpaceOnUse">
<stop stop-color="#DD5033"/>
<stop offset="0.230769" stop-color="#D1344A"/>
<stop offset="0.466346" stop-color="#BA1B62"/>
<stop offset="0.610577" stop-color="#9A0B7C"/>
<stop offset="0.831731" stop-color="#590B98"/>
<stop offset="1" stop-color="#0A0EBB"/>
</linearGradient>
</defs>
</svg>
